<mxfile host="Electron" modified="2023-09-07T17:19:08.963Z" agent="Mozilla/5.0 (Windows NT 10.0; Win64; x64) AppleWebKit/537.36 (KHTML, like Gecko) draw.io/21.6.8 Chrome/114.0.5735.289 Electron/25.5.0 Safari/537.36" etag="pK5Z68folQuHjGJWvokm" version="21.6.8" type="device">
  <diagram name="Página-1" id="VJ3dDhkdw4sILlnKDVyH">
    <mxGraphModel dx="1036" dy="614" grid="1" gridSize="10" guides="1" tooltips="1" connect="1" arrows="1" fold="1" page="1" pageScale="1" pageWidth="827" pageHeight="1169" math="0" shadow="0">
      <root>
        <mxCell id="0" />
        <mxCell id="1" parent="0" />
        <mxCell id="JLB9dS78lTQaM-TFwSQl-1" value="" style="strokeWidth=2;html=1;shape=mxgraph.flowchart.start_2;whiteSpace=wrap;" parent="1" vertex="1">
          <mxGeometry x="30" y="80" width="30" height="30" as="geometry" />
        </mxCell>
        <mxCell id="JLB9dS78lTQaM-TFwSQl-3" value="" style="ellipse;shape=doubleEllipse;whiteSpace=wrap;html=1;aspect=fixed;perimeterSpacing=0;strokeWidth=2;" parent="1" vertex="1">
          <mxGeometry x="600" y="600" width="40" height="40" as="geometry" />
        </mxCell>
        <mxCell id="JLB9dS78lTQaM-TFwSQl-5" value="Presionar la pestaña &quot;Hamburguesa&quot; ubicada en la esquina superior derecha" style="rounded=1;whiteSpace=wrap;html=1;" parent="1" vertex="1">
          <mxGeometry x="90" y="57.5" width="120" height="75" as="geometry" />
        </mxCell>
        <mxCell id="JLB9dS78lTQaM-TFwSQl-6" value="" style="endArrow=classic;html=1;rounded=0;exitX=1;exitY=0.5;exitDx=0;exitDy=0;exitPerimeter=0;entryX=0;entryY=0.5;entryDx=0;entryDy=0;" parent="1" source="JLB9dS78lTQaM-TFwSQl-1" target="JLB9dS78lTQaM-TFwSQl-5" edge="1">
          <mxGeometry width="50" height="50" relative="1" as="geometry">
            <mxPoint x="180" y="385" as="sourcePoint" />
            <mxPoint x="230" y="335" as="targetPoint" />
          </mxGeometry>
        </mxCell>
        <mxCell id="JLB9dS78lTQaM-TFwSQl-7" value="Selecciona la opción &quot;Registrar documentación personal&quot;" style="rounded=1;whiteSpace=wrap;html=1;" parent="1" vertex="1">
          <mxGeometry x="240" y="150" width="120" height="60" as="geometry" />
        </mxCell>
        <mxCell id="JLB9dS78lTQaM-TFwSQl-8" value="" style="endArrow=classic;html=1;rounded=0;exitX=1;exitY=0.5;exitDx=0;exitDy=0;entryX=0;entryY=0.5;entryDx=0;entryDy=0;" parent="1" source="JLB9dS78lTQaM-TFwSQl-5" target="OFUJBj4biFuGSBhYL2wF-2" edge="1">
          <mxGeometry width="50" height="50" relative="1" as="geometry">
            <mxPoint x="80" y="120" as="sourcePoint" />
            <mxPoint x="130" y="120" as="targetPoint" />
          </mxGeometry>
        </mxCell>
        <mxCell id="JLB9dS78lTQaM-TFwSQl-9" value="Validador de formato" style="rhombus;whiteSpace=wrap;html=1;" parent="1" vertex="1">
          <mxGeometry x="420" y="420" width="80" height="80" as="geometry" />
        </mxCell>
        <mxCell id="JLB9dS78lTQaM-TFwSQl-11" value="Mensaje &quot;El archivo debe ser formato jpg, png, pfd o docx.&quot;" style="rounded=1;whiteSpace=wrap;html=1;" parent="1" vertex="1">
          <mxGeometry x="240" y="330" width="120" height="60" as="geometry" />
        </mxCell>
        <mxCell id="JLB9dS78lTQaM-TFwSQl-13" value="Otro" style="endArrow=classic;html=1;rounded=0;entryX=0.5;entryY=1;entryDx=0;entryDy=0;exitX=0;exitY=0;exitDx=0;exitDy=0;" parent="1" source="JLB9dS78lTQaM-TFwSQl-9" target="JLB9dS78lTQaM-TFwSQl-11" edge="1">
          <mxGeometry width="50" height="50" relative="1" as="geometry">
            <mxPoint x="350" y="420" as="sourcePoint" />
            <mxPoint x="380" y="355" as="targetPoint" />
            <Array as="points" />
          </mxGeometry>
        </mxCell>
        <mxCell id="JLB9dS78lTQaM-TFwSQl-16" value="" style="endArrow=classic;html=1;rounded=0;exitX=0.5;exitY=1;exitDx=0;exitDy=0;entryX=0.5;entryY=0;entryDx=0;entryDy=0;" parent="1" source="JLB9dS78lTQaM-TFwSQl-9" target="WbE46uTL08etUTYTK5gD-9" edge="1">
          <mxGeometry x="-0.4286" y="140" width="50" height="50" relative="1" as="geometry">
            <mxPoint x="380" y="425" as="sourcePoint" />
            <mxPoint x="250" y="570" as="targetPoint" />
            <Array as="points" />
            <mxPoint as="offset" />
          </mxGeometry>
        </mxCell>
        <mxCell id="JLB9dS78lTQaM-TFwSQl-18" value="jpg, png, pdf, docx" style="edgeLabel;html=1;align=center;verticalAlign=middle;resizable=0;points=[];" parent="JLB9dS78lTQaM-TFwSQl-16" vertex="1" connectable="0">
          <mxGeometry x="-0.4267" y="1" relative="1" as="geometry">
            <mxPoint as="offset" />
          </mxGeometry>
        </mxCell>
        <mxCell id="JLB9dS78lTQaM-TFwSQl-17" value="Confirmar registro" style="rounded=1;whiteSpace=wrap;html=1;" parent="1" vertex="1">
          <mxGeometry x="400" y="665" width="120" height="60" as="geometry" />
        </mxCell>
        <mxCell id="JLB9dS78lTQaM-TFwSQl-19" value="Mensaje de registro completado con exito" style="rounded=1;whiteSpace=wrap;html=1;" parent="1" vertex="1">
          <mxGeometry x="560" y="665" width="120" height="60" as="geometry" />
        </mxCell>
        <mxCell id="JLB9dS78lTQaM-TFwSQl-20" value="" style="endArrow=classic;html=1;rounded=0;exitX=1;exitY=0.5;exitDx=0;exitDy=0;entryX=0;entryY=0.5;entryDx=0;entryDy=0;" parent="1" source="JLB9dS78lTQaM-TFwSQl-17" target="JLB9dS78lTQaM-TFwSQl-19" edge="1">
          <mxGeometry width="50" height="50" relative="1" as="geometry">
            <mxPoint x="380" y="325" as="sourcePoint" />
            <mxPoint x="380" y="355" as="targetPoint" />
            <Array as="points" />
          </mxGeometry>
        </mxCell>
        <mxCell id="JLB9dS78lTQaM-TFwSQl-21" value="Mensaje &quot;El archivo no debe pesar más de 5mb&quot;" style="rounded=1;whiteSpace=wrap;html=1;" parent="1" vertex="1">
          <mxGeometry x="570" y="330" width="120" height="60" as="geometry" />
        </mxCell>
        <mxCell id="JLB9dS78lTQaM-TFwSQl-23" value="" style="endArrow=classic;html=1;rounded=0;exitX=0.5;exitY=0;exitDx=0;exitDy=0;" parent="1" source="JLB9dS78lTQaM-TFwSQl-19" target="JLB9dS78lTQaM-TFwSQl-3" edge="1">
          <mxGeometry width="50" height="50" relative="1" as="geometry">
            <mxPoint x="564" y="705" as="sourcePoint" />
            <mxPoint x="550" y="745" as="targetPoint" />
            <Array as="points" />
          </mxGeometry>
        </mxCell>
        <mxCell id="OFUJBj4biFuGSBhYL2wF-2" value="Se despliega menú con funciones del sistema" style="rounded=1;whiteSpace=wrap;html=1;" parent="1" vertex="1">
          <mxGeometry x="240" y="65" width="120" height="60" as="geometry" />
        </mxCell>
        <mxCell id="OFUJBj4biFuGSBhYL2wF-3" value="" style="endArrow=classic;html=1;rounded=0;entryX=0.5;entryY=0;entryDx=0;entryDy=0;exitX=0.5;exitY=1;exitDx=0;exitDy=0;" parent="1" source="OFUJBj4biFuGSBhYL2wF-2" target="JLB9dS78lTQaM-TFwSQl-7" edge="1">
          <mxGeometry width="50" height="50" relative="1" as="geometry">
            <mxPoint x="260" y="130" as="sourcePoint" />
            <mxPoint x="160" y="235" as="targetPoint" />
          </mxGeometry>
        </mxCell>
        <mxCell id="OFUJBj4biFuGSBhYL2wF-5" value="Caso de uso N°21" style="text;strokeColor=none;fillColor=none;align=left;verticalAlign=middle;spacingLeft=4;spacingRight=4;overflow=hidden;points=[[0,0.5],[1,0.5]];portConstraint=eastwest;rotatable=0;whiteSpace=wrap;html=1;" parent="1" vertex="1">
          <mxGeometry x="30" y="140" width="80" height="30" as="geometry" />
        </mxCell>
        <mxCell id="WbE46uTL08etUTYTK5gD-1" value="Se despliega menú con formulario de subida" style="rounded=1;whiteSpace=wrap;html=1;" vertex="1" parent="1">
          <mxGeometry x="240" y="240" width="120" height="60" as="geometry" />
        </mxCell>
        <mxCell id="WbE46uTL08etUTYTK5gD-2" value="" style="endArrow=classic;html=1;rounded=0;entryX=0.5;entryY=0;entryDx=0;entryDy=0;exitX=0.5;exitY=1;exitDx=0;exitDy=0;" edge="1" parent="1" source="JLB9dS78lTQaM-TFwSQl-7" target="WbE46uTL08etUTYTK5gD-1">
          <mxGeometry width="50" height="50" relative="1" as="geometry">
            <mxPoint x="310" y="135" as="sourcePoint" />
            <mxPoint x="310" y="160" as="targetPoint" />
          </mxGeometry>
        </mxCell>
        <mxCell id="WbE46uTL08etUTYTK5gD-3" value="Presionar el botón &quot;Subir archivo&quot;" style="rounded=1;whiteSpace=wrap;html=1;" vertex="1" parent="1">
          <mxGeometry x="400" y="240" width="120" height="60" as="geometry" />
        </mxCell>
        <mxCell id="WbE46uTL08etUTYTK5gD-4" value="" style="endArrow=classic;html=1;rounded=0;entryX=0;entryY=0.5;entryDx=0;entryDy=0;exitX=1;exitY=0.5;exitDx=0;exitDy=0;" edge="1" parent="1" source="WbE46uTL08etUTYTK5gD-1" target="WbE46uTL08etUTYTK5gD-3">
          <mxGeometry width="50" height="50" relative="1" as="geometry">
            <mxPoint x="310" y="220" as="sourcePoint" />
            <mxPoint x="310" y="250" as="targetPoint" />
          </mxGeometry>
        </mxCell>
        <mxCell id="WbE46uTL08etUTYTK5gD-5" value="Adjuntar archivo" style="rounded=1;whiteSpace=wrap;html=1;" vertex="1" parent="1">
          <mxGeometry x="400" y="330" width="120" height="60" as="geometry" />
        </mxCell>
        <mxCell id="WbE46uTL08etUTYTK5gD-6" value="" style="endArrow=classic;html=1;rounded=0;entryX=0.5;entryY=0;entryDx=0;entryDy=0;exitX=0.5;exitY=1;exitDx=0;exitDy=0;" edge="1" parent="1" source="WbE46uTL08etUTYTK5gD-3" target="WbE46uTL08etUTYTK5gD-5">
          <mxGeometry width="50" height="50" relative="1" as="geometry">
            <mxPoint x="370" y="280" as="sourcePoint" />
            <mxPoint x="410" y="280" as="targetPoint" />
          </mxGeometry>
        </mxCell>
        <mxCell id="WbE46uTL08etUTYTK5gD-7" value="" style="endArrow=classic;html=1;rounded=0;entryX=0.5;entryY=0;entryDx=0;entryDy=0;exitX=0.5;exitY=1;exitDx=0;exitDy=0;" edge="1" parent="1" source="WbE46uTL08etUTYTK5gD-5" target="JLB9dS78lTQaM-TFwSQl-9">
          <mxGeometry width="50" height="50" relative="1" as="geometry">
            <mxPoint x="470" y="310" as="sourcePoint" />
            <mxPoint x="470" y="340" as="targetPoint" />
          </mxGeometry>
        </mxCell>
        <mxCell id="WbE46uTL08etUTYTK5gD-8" value="" style="endArrow=classic;html=1;rounded=0;entryX=0;entryY=0.5;entryDx=0;entryDy=0;exitX=1;exitY=0.5;exitDx=0;exitDy=0;" edge="1" parent="1" source="JLB9dS78lTQaM-TFwSQl-11" target="WbE46uTL08etUTYTK5gD-5">
          <mxGeometry width="50" height="50" relative="1" as="geometry">
            <mxPoint x="470" y="400" as="sourcePoint" />
            <mxPoint x="350" y="500" as="targetPoint" />
          </mxGeometry>
        </mxCell>
        <mxCell id="WbE46uTL08etUTYTK5gD-9" value="Validador de tamaño" style="rhombus;whiteSpace=wrap;html=1;" vertex="1" parent="1">
          <mxGeometry x="420" y="540" width="80" height="80" as="geometry" />
        </mxCell>
        <mxCell id="WbE46uTL08etUTYTK5gD-11" value="" style="endArrow=classic;html=1;rounded=0;exitX=1;exitY=0;exitDx=0;exitDy=0;entryX=0.5;entryY=1;entryDx=0;entryDy=0;" edge="1" parent="1" source="WbE46uTL08etUTYTK5gD-9" target="JLB9dS78lTQaM-TFwSQl-21">
          <mxGeometry width="50" height="50" relative="1" as="geometry">
            <mxPoint x="450" y="790" as="sourcePoint" />
            <mxPoint x="500" y="660" as="targetPoint" />
            <Array as="points" />
          </mxGeometry>
        </mxCell>
        <mxCell id="WbE46uTL08etUTYTK5gD-13" value="Más de 5mb" style="edgeLabel;html=1;align=center;verticalAlign=middle;resizable=0;points=[];" vertex="1" connectable="0" parent="WbE46uTL08etUTYTK5gD-11">
          <mxGeometry x="-0.1293" y="-2" relative="1" as="geometry">
            <mxPoint as="offset" />
          </mxGeometry>
        </mxCell>
        <mxCell id="WbE46uTL08etUTYTK5gD-12" value="" style="endArrow=classic;html=1;rounded=0;exitX=0;exitY=0.5;exitDx=0;exitDy=0;entryX=1;entryY=0.5;entryDx=0;entryDy=0;" edge="1" parent="1" source="JLB9dS78lTQaM-TFwSQl-21" target="WbE46uTL08etUTYTK5gD-5">
          <mxGeometry width="50" height="50" relative="1" as="geometry">
            <mxPoint x="350" y="650" as="sourcePoint" />
            <mxPoint x="410" y="530" as="targetPoint" />
            <Array as="points" />
          </mxGeometry>
        </mxCell>
        <mxCell id="WbE46uTL08etUTYTK5gD-14" value="" style="endArrow=classic;html=1;rounded=0;exitX=0.5;exitY=1;exitDx=0;exitDy=0;entryX=0.5;entryY=0;entryDx=0;entryDy=0;" edge="1" parent="1" source="WbE46uTL08etUTYTK5gD-9" target="JLB9dS78lTQaM-TFwSQl-17">
          <mxGeometry width="50" height="50" relative="1" as="geometry">
            <mxPoint x="350" y="650" as="sourcePoint" />
            <mxPoint x="460" y="660" as="targetPoint" />
            <Array as="points" />
          </mxGeometry>
        </mxCell>
        <mxCell id="WbE46uTL08etUTYTK5gD-15" value="Menos de 5mb" style="edgeLabel;html=1;align=center;verticalAlign=middle;resizable=0;points=[];" vertex="1" connectable="0" parent="WbE46uTL08etUTYTK5gD-14">
          <mxGeometry x="-0.1293" y="-2" relative="1" as="geometry">
            <mxPoint as="offset" />
          </mxGeometry>
        </mxCell>
      </root>
    </mxGraphModel>
  </diagram>
</mxfile>
